<?xml version="1.0" standalone="no"?>
<!DOCTYPE svg PUBLIC "-//W3C//DTD SVG 20010904//EN"
 "http://www.w3.org/TR/2001/REC-SVG-20010904/DTD/svg10.dtd">
<svg version="1.0" xmlns="http://www.w3.org/2000/svg"
 width="600.000000pt" height="600.000000pt" viewBox="0 0 600.000000 600.000000"
 preserveAspectRatio="xMidYMid meet">
<metadata>
Created by potrace 1.14, written by Peter Selinger 2001-2017
</metadata>
<g transform="translate(0.000000,600.000000) scale(0.100000,-0.100000)"
fill="#000000" stroke="none">
<path d="M4846 5854 c-6 -5 -30 -9 -53 -7 -23 1 -45 -2 -48 -7 -4 -6 -26 -10
-51 -10 -24 0 -44 -4 -44 -10 0 -5 -9 -10 -20 -10 -11 0 -20 -5 -20 -11 0 -6
-9 -9 -19 -6 -12 3 -22 -1 -26 -11 -3 -8 -8 -12 -11 -9 -8 7 -98 -39 -115 -59
-6 -7 -15 -11 -20 -8 -5 3 -9 0 -9 -5 0 -6 -6 -11 -13 -11 -7 0 -22 -8 -33
-18 -19 -18 -54 -36 -65 -34 -3 1 -19 -12 -34 -28 -16 -17 -35 -30 -42 -30 -7
0 -20 -11 -29 -25 -9 -14 -22 -25 -29 -25 -6 0 -27 -15 -46 -32 -19 -18 -43
-38 -55 -44 -24 -13 -35 -21 -116 -95 -32 -29 -58 -48 -58 -43 0 5 -20 -12
-44 -38 -24 -27 -49 -48 -56 -48 -6 0 -30 -19 -53 -42 -23 -24 -47 -44 -54
-45 -6 -2 -38 -30 -69 -63 -32 -33 -63 -60 -70 -60 -6 0 -19 -9 -28 -19 -10
-10 -25 -18 -34 -16 -9 2 -22 4 -28 4 -6 1 -43 33 -81 71 -39 39 -74 70 -80
70 -5 0 -20 11 -33 25 -13 14 -28 25 -35 25 -6 0 -17 9 -25 19 -7 11 -18 18
-22 15 -5 -3 -17 4 -27 15 -10 12 -26 21 -35 21 -9 0 -16 5 -16 11 0 5 -4 8
-9 5 -5 -3 -14 1 -21 8 -6 8 -21 13 -32 11 -12 -3 -26 -1 -32 4 -12 9 -79 21
-138 24 -21 1 -38 6 -38 10 0 5 -5 5 -11 2 -16 -10 -68 -12 -71 -3 -2 4 -15 2
-29 -6 -15 -8 -44 -16 -65 -19 -82 -12 -97 -16 -135 -41 -21 -14 -45 -26 -54
-26 -8 0 -15 -4 -15 -10 0 -5 -7 -10 -15 -10 -8 0 -15 -4 -15 -10 0 -5 -7 -7
-15 -4 -8 4 -15 1 -15 -5 0 -6 -7 -11 -16 -11 -9 0 -28 -9 -44 -20 -15 -11
-30 -17 -33 -13 -4 3 -9 -2 -13 -11 -3 -9 -10 -13 -16 -10 -5 3 -17 -4 -27
-15 -10 -12 -24 -21 -31 -21 -7 0 -20 -8 -29 -18 -38 -42 -111 -69 -111 -41 0
5 -4 7 -10 4 -5 -3 -17 3 -27 15 -10 11 -25 20 -35 20 -10 0 -18 6 -18 14 0
10 -7 12 -22 8 -14 -3 -19 -2 -14 6 4 7 2 12 -5 12 -20 0 -129 52 -129 62 0 4
-9 8 -20 8 -11 0 -23 6 -26 14 -3 7 -24 19 -47 26 -23 8 -52 22 -64 33 -12 10
-26 16 -32 12 -6 -3 -11 -2 -11 3 0 11 -108 66 -130 66 -8 0 -22 8 -31 18 -9
10 -30 18 -48 18 -17 0 -31 5 -31 10 0 6 -9 10 -20 10 -11 0 -20 5 -20 11 0 6
-9 9 -20 6 -10 -3 -24 1 -30 8 -6 8 -27 12 -50 10 -25 -1 -40 2 -40 9 0 7 -22
10 -62 9 -35 0 -69 3 -75 9 -7 6 -22 8 -33 5 -11 -3 -23 -1 -26 4 -3 5 -10 6
-16 3 -6 -4 -40 -6 -75 -5 -35 1 -63 -2 -63 -7 0 -6 -21 -9 -47 -8 -27 1 -57
-2 -68 -8 -11 -6 -33 -11 -49 -12 -15 -1 -32 -7 -36 -13 -4 -7 -9 -12 -11 -11
-8 4 -89 -35 -89 -43 0 -4 -4 -5 -10 -2 -5 3 -28 -13 -51 -36 -22 -22 -43 -39
-45 -36 -3 3 -21 -11 -40 -31 -18 -20 -32 -38 -29 -40 2 -3 -9 -17 -25 -32
-16 -15 -27 -29 -25 -32 3 -3 -4 -13 -15 -23 -11 -10 -20 -24 -20 -32 0 -7 -4
-13 -10 -13 -5 0 -10 -13 -10 -30 0 -16 -4 -30 -9 -30 -10 0 -22 -34 -24 -70
-1 -14 -6 -28 -11 -31 -5 -4 -8 -27 -8 -53 1 -25 -3 -48 -8 -51 -13 -8 -13
-325 0 -325 5 0 8 -17 7 -37 -2 -21 1 -47 7 -58 5 -11 10 -29 11 -39 1 -11 7
-22 12 -23 6 -2 9 -12 6 -22 -3 -10 0 -22 6 -25 6 -4 11 -17 11 -29 0 -13 9
-29 19 -37 11 -7 17 -18 14 -23 -6 -10 34 -93 59 -121 10 -10 15 -23 12 -28
-3 -4 2 -8 10 -8 10 0 13 -6 9 -16 -3 -9 3 -21 16 -31 12 -8 20 -21 17 -29 -3
-8 1 -14 11 -14 9 0 13 -3 10 -7 -4 -3 2 -12 13 -20 11 -8 20 -20 20 -26 0 -7
18 -29 39 -49 22 -20 37 -38 34 -41 -3 -3 43 -53 102 -112 59 -58 109 -104
112 -102 2 3 24 -15 47 -39 24 -24 49 -44 55 -44 6 0 11 -5 11 -11 0 -5 4 -7
10 -4 5 3 10 -1 10 -10 0 -10 6 -15 13 -12 8 3 26 -8 41 -24 15 -16 34 -29 42
-29 8 0 14 -4 14 -10 0 -5 3 -9 8 -8 13 3 58 -20 71 -36 7 -9 19 -16 27 -16 7
0 19 -8 26 -17 7 -10 22 -18 33 -18 25 1 58 -34 50 -53 -3 -7 -5 -18 -5 -23 0
-5 -5 -9 -11 -9 -7 0 -31 -18 -55 -40 -24 -22 -41 -40 -39 -40 3 0 -1 -15 -8
-33 -8 -18 -12 -42 -10 -55 1 -12 -3 -25 -10 -27 -17 -7 -14 -199 3 -220 7 -9
10 -18 7 -22 -4 -3 0 -15 8 -25 7 -11 11 -27 8 -34 -3 -8 0 -14 7 -14 8 0 11
-9 8 -25 -3 -14 -1 -25 4 -25 9 0 32 -49 30 -62 -1 -5 4 -8 11 -8 7 0 24 -11
38 -24 28 -26 70 -51 81 -48 3 1 11 -5 18 -13 6 -7 17 -12 24 -9 7 3 24 -7 39
-22 24 -24 25 -29 14 -58 -7 -17 -12 -51 -11 -76 1 -25 -3 -48 -8 -51 -11 -7
-13 -282 -2 -300 5 -8 10 -38 10 -68 1 -29 5 -56 10 -60 5 -3 9 -17 8 -31 0
-24 4 -35 26 -80 6 -11 10 -29 10 -39 0 -11 5 -23 11 -26 6 -4 8 -13 5 -20 -3
-8 2 -19 9 -25 8 -7 14 -15 13 -18 -3 -15 17 -48 43 -74 15 -14 25 -29 22 -31
-6 -7 80 -92 127 -128 19 -14 50 -32 68 -40 17 -8 32 -17 32 -21 0 -5 14 -8
30 -8 17 0 30 -4 30 -9 0 -5 17 -8 37 -7 40 2 63 -12 63 -38 0 -9 4 -16 9 -16
11 0 12 -198 0 -206 -5 -3 -8 -39 -8 -81 1 -42 -3 -78 -9 -82 -5 -3 -9 -45 -8
-94 1 -48 -3 -97 -8 -110 -13 -32 -14 -88 -2 -93 7 -3 11 -32 10 -71 -1 -66
12 -123 28 -123 4 0 8 -11 8 -23 0 -21 8 -34 50 -84 5 -7 10 -17 10 -23 0 -5
7 -10 15 -10 8 0 15 -4 15 -10 0 -5 3 -9 8 -8 11 2 62 -24 62 -33 0 -4 8 -5
19 -2 10 3 22 0 25 -6 4 -6 25 -11 46 -11 21 0 41 -4 44 -9 7 -11 196 -12 196
0 0 5 20 9 45 9 25 0 45 5 45 10 0 6 12 9 28 7 22 -3 37 6 80 49 28 29 52 57
52 63 0 6 4 11 10 11 5 0 7 7 4 15 -4 8 -1 15 5 15 6 0 11 13 11 29 0 16 7 41
14 57 9 17 12 33 7 43 -5 8 -4 29 4 50 6 20 11 62 10 95 -1 35 3 60 10 62 7 3
10 25 8 59 -1 30 2 57 7 60 6 3 10 16 10 29 0 32 55 78 96 81 6 0 19 6 28 14
9 7 16 11 16 7 0 -3 21 6 48 20 52 29 107 81 116 112 4 11 14 23 22 26 8 3 12
10 9 16 -3 6 0 13 8 16 9 3 13 16 11 35 -2 18 1 32 9 35 8 3 11 17 9 39 -2 19
0 35 5 35 6 0 10 20 10 44 0 24 4 50 9 57 5 8 10 31 11 52 2 21 11 53 20 70
22 39 121 141 148 152 11 4 56 9 99 9 45 1 81 6 83 12 2 6 25 9 53 8 28 -2 50
1 50 6 0 6 11 10 24 10 14 0 28 5 31 11 4 5 12 8 17 7 6 -2 21 5 33 16 11 12
34 31 50 44 16 12 25 22 21 22 -5 0 -2 8 6 18 8 9 14 24 13 32 0 8 4 18 9 22
5 3 9 29 10 57 0 28 3 51 8 51 4 0 8 10 8 23 1 20 2 21 14 5 7 -10 15 -15 18
-13 7 8 56 -19 76 -42 9 -11 31 -28 47 -39 17 -10 36 -27 43 -36 7 -10 19 -18
25 -18 7 0 27 -14 45 -31 17 -16 32 -27 32 -23 0 4 14 -7 31 -24 17 -18 36
-32 42 -32 5 0 18 -10 28 -22 11 -11 19 -18 19 -14 0 8 83 -34 91 -47 4 -5 12
-6 18 -3 6 4 14 1 17 -8 3 -8 12 -12 20 -9 8 3 14 1 14 -3 0 -13 58 -37 75
-30 8 3 20 -1 27 -8 9 -8 37 -12 77 -11 36 0 65 -4 67 -10 5 -13 133 -12 142
1 4 6 32 10 62 9 30 -2 64 2 75 8 11 6 28 10 38 8 9 -1 17 3 17 8 0 6 9 11 20
11 11 0 20 5 20 10 0 6 6 10 13 10 8 0 22 9 32 20 10 11 21 18 25 15 9 -6 72
63 90 100 8 16 21 37 28 45 7 8 13 20 14 25 1 6 8 16 15 23 7 8 11 18 8 23 -4
5 -2 9 2 9 11 0 33 59 33 88 0 12 4 22 9 22 5 0 8 11 7 24 -2 14 2 27 9 30 8
3 11 18 10 38 -2 18 1 39 7 45 12 15 12 384 0 392 -5 3 -8 22 -8 41 1 19 -5
41 -12 49 -7 7 -10 21 -7 31 3 10 0 24 -8 31 -8 8 -12 21 -10 30 3 9 0 20 -6
23 -6 4 -11 18 -11 32 0 13 -4 24 -9 24 -6 0 -8 9 -6 20 2 12 -2 23 -10 26 -7
3 -11 12 -8 20 3 8 0 14 -6 14 -6 0 -11 9 -11 20 0 11 -4 20 -10 20 -5 0 -10
8 -10 18 0 24 -29 82 -41 82 -5 0 -9 9 -9 20 0 11 -4 20 -9 20 -7 0 -13 14
-21 48 -1 4 -8 14 -16 23 -8 9 -11 18 -8 22 3 3 -3 12 -15 19 -12 7 -21 19
-21 27 0 7 -9 22 -21 32 -11 9 -20 20 -19 24 3 12 -34 54 -43 48 -4 -3 -7 2
-5 10 2 8 -16 35 -39 60 -24 26 -43 43 -43 39 0 -7 -42 59 -57 88 -4 8 -14 20
-22 26 -13 10 -11 16 14 47 17 20 40 39 53 43 12 3 22 10 22 15 0 5 6 9 14 9
7 0 34 20 59 45 26 25 51 45 56 45 12 0 254 246 262 267 4 10 16 25 28 33 12
8 21 21 21 30 0 8 11 24 25 34 14 10 25 24 25 31 0 6 8 20 19 31 10 11 22 31
26 43 4 12 9 20 12 17 7 -7 33 20 33 34 0 6 9 20 20 32 11 12 20 28 20 35 0 7
5 13 11 13 5 0 7 5 3 11 -3 6 0 15 7 20 8 4 15 12 15 16 5 26 18 53 25 53 5 0
9 9 9 20 0 11 4 20 9 20 6 0 8 9 6 20 -2 11 0 22 6 25 5 4 9 17 9 31 0 13 5
24 10 24 6 0 10 10 10 23 0 13 5 28 12 35 7 7 9 12 5 12 -4 0 -1 12 6 28 7 15
13 34 12 42 -1 8 4 26 10 40 7 14 10 31 8 38 -3 7 0 19 7 27 12 15 17 345 5
365 -3 5 -2 10 2 10 5 0 7 16 5 35 -2 19 -9 35 -14 35 -6 0 -8 9 -5 20 3 10 1
20 -5 22 -5 2 -11 17 -12 33 -4 41 -16 75 -27 75 -5 0 -9 14 -9 30 0 17 -4 30
-9 30 -5 0 -12 8 -15 18 -14 37 -36 65 -107 135 -75 73 -96 89 -137 107 -12 5
-25 17 -28 25 -4 9 -13 13 -24 10 -9 -3 -23 1 -30 10 -7 8 -16 13 -20 10 -5
-3 -15 3 -22 14 -9 13 -23 19 -41 17 -15 -2 -31 2 -37 9 -7 8 -36 12 -85 11
-41 -1 -76 3 -78 8 -5 14 -178 14 -191 0z"/>
</g>
</svg>
